<?xml version="1.0" encoding="UTF-8" standalone="no"?>
<svg width="25px" height="31px" viewBox="0 0 25 31" version="1.1" xmlns="http://www.w3.org/2000/svg" xmlns:xlink="http://www.w3.org/1999/xlink">
    <!-- Generator: Sketch 42 (36781) - http://www.bohemiancoding.com/sketch -->
    <title>Apple</title>
    <desc>Created with Sketch.</desc>
    <defs></defs>
    <g id="Sep-6" stroke="none" stroke-width="1" fill="none" fill-rule="evenodd">
        <g id="3-copy" transform="translate(-348.000000, -464.000000)" fill-rule="nonzero" fill="#D1C2AD">
            <path d="M361.639277,466.666035 C363.631595,464.012934 366.401393,464 366.401393,464 C366.401393,464 366.813396,466.494365 364.834129,468.897234 C362.720766,471.462964 360.318637,471.043126 360.318637,471.043126 C360.318637,471.043126 359.867581,469.025269 361.639277,466.666035 L361.639277,466.666035 Z M360.572035,472.79042 C361.596986,472.79042 363.499242,471.366938 365.975293,471.366938 C370.237387,471.366938 371.91409,474.431068 371.91409,474.431068 C371.91409,474.431068 368.634756,476.125065 368.634756,480.235467 C368.634756,484.872353 372.719914,486.470374 372.719914,486.470374 C372.719914,486.470374 369.864238,494.591177 366.007024,494.591177 C364.235428,494.591177 362.8581,493.384962 360.99146,493.384962 C359.089204,493.384962 357.201494,494.636171 355.972011,494.636171 C352.449789,494.636272 348,486.932839 348,480.740561 C348,474.648234 351.766455,471.452295 355.299238,471.452295 C357.595863,471.452295 359.378069,472.79042 360.572035,472.79042 L360.572035,472.79042 Z" id="Apple"></path>
        </g>
    </g>
</svg>