<?xml version="1.0" encoding="UTF-8" standalone="no"?>
<svg width="101px" height="21px" viewBox="0 0 101 21" version="1.1" xmlns="http://www.w3.org/2000/svg" xmlns:xlink="http://www.w3.org/1999/xlink">
    <!-- Generator: Sketch 42 (36781) - http://www.bohemiancoding.com/sketch -->
    <title>Facebook</title>
    <desc>Created with Sketch.</desc>
    <defs></defs>
    <g id="Sep-6" stroke="none" stroke-width="1" fill="none" fill-rule="evenodd">
        <g id="3-copy" transform="translate(-212.000000, -469.000000)" fill-rule="nonzero" fill="#D1C2AD">
            <g id="Facebook" transform="translate(212.000000, 469.000000)">
                <path d="M53.7765962,10.1049047 C52.9140898,10.1049047 52.2923504,10.3895293 51.6619085,10.6795059 L51.6619085,17.2409553 C52.2657596,17.2988533 52.6119225,17.2988533 53.1848317,17.2988533 C55.2550405,17.2988533 55.538836,16.3447526 55.538836,15.012612 L55.538836,11.8788217 C55.538836,10.8950421 55.2144292,10.1049047 53.7765962,10.1049047 L53.7765962,10.1049047 Z M40.0277416,9.7468128 C38.5913591,9.7468128 38.263568,10.540356 38.263568,11.5231625 L38.263568,12.075383 L41.7899814,12.075383 L41.7899814,11.5231625 C41.7899814,10.540356 41.4621903,9.7468128 40.0277416,9.7468128 Z M13.3935058,16.5763446 C13.3935058,17.3538321 13.7580405,17.7576585 14.5625307,17.7576585 C15.4255206,17.7576585 15.9365459,17.4744935 16.5665044,17.1835439 L16.5665044,15.6271093 L14.6795299,15.6271093 C13.7860816,15.6271093 13.3935058,15.7944783 13.3935058,16.5763446 Z M67.1507633,10.1049047 C65.7119634,10.1049047 65.2135082,10.8950421 65.2135082,11.8788217 L65.2135082,15.4689845 C65.2135082,16.4551967 65.7119634,17.2477669 67.1507633,17.2477669 C68.5856955,17.2477669 69.0880184,16.4551967 69.0880184,15.4689845 L69.0880184,11.8788217 C69.0875349,10.8950421 68.585212,10.1049047 67.1507633,10.1049047 L67.1507633,10.1049047 Z M6.34261281,20.6019588 L2.11323734,20.6019588 L2.11323734,10.3000063 L0,10.3000063 L0,6.75022616 L2.1137208,6.75022616 L2.1137208,4.61821729 C2.1137208,1.72185746 3.30643563,7.10542736e-15 6.69651117,7.10542736e-15 L9.51899563,7.10542736e-15 L9.51899563,3.55075325 L7.75482198,3.55075325 C6.43495514,3.55075325 6.34793096,4.04702186 6.34793096,4.97290339 L6.34261281,6.74973963 L9.53833434,6.74973963 L9.1646138,10.2995198 L6.34261281,10.2995198 L6.34261281,20.6019588 L6.34261281,20.6019588 Z M20.7968468,20.6287184 L17.2718837,20.6287184 L17.1195914,19.7315426 C15.5101274,20.6287184 14.0737449,20.7741932 13.1261482,20.7741932 C10.5410464,20.7741932 9.16509727,19.03628 9.16509727,16.632783 C9.16509727,13.7972404 10.7706935,12.7852417 13.6429751,12.7852417 L16.5665044,12.7852417 L16.5665044,12.172204 C16.5665044,10.7247539 16.4016419,10.3000063 14.1897771,10.3000063 L10.5734387,10.3000063 L10.9268536,6.75022616 L14.8796855,6.75022616 C19.7327344,6.75022616 20.7968468,8.29303769 20.7968468,12.2009097 L20.7968468,20.6287184 L20.7968468,20.6287184 Z M32.7834616,10.5603041 C30.5899686,10.1817776 29.9600102,10.0985797 28.9046002,10.0985797 C27.0089233,10.0985797 26.4360141,10.5194349 26.4360141,12.139606 L26.4360141,15.2043079 C26.4360141,16.8244789 27.0089233,17.2472803 28.9046002,17.2472803 C29.9600102,17.2472803 30.5899686,17.1626227 32.7834616,16.7826367 L32.7834616,20.2453266 C30.8621609,20.6788318 29.610463,20.7926817 28.5526357,20.7926817 C24.011907,20.7926817 22.2071221,18.3896712 22.2071221,14.9182236 L22.2071221,12.4315287 C22.2071221,8.95716186 24.011907,6.54977257 28.5526357,6.54977257 C29.610463,6.54977257 30.8621609,6.66410896 32.7834616,7.09956034 L32.7834616,10.5603041 L32.7834616,10.5603041 Z M46.0188734,14.9182236 L38.2630845,14.9182236 L38.2630845,15.2043079 C38.2630845,16.8244789 38.8364772,17.2472803 40.7316706,17.2472803 C42.4354108,17.2472803 43.4753498,17.1626227 45.6649751,16.7826367 L45.6649751,20.2453266 C43.5531881,20.6788318 42.4528156,20.7926817 40.3811565,20.7926817 C35.8399444,20.7926817 34.0341925,18.3896712 34.0341925,14.9182236 L34.0341925,12.0748964 C34.0341925,9.03744061 35.3738815,6.54977257 40.0272582,6.54977257 C44.6806348,6.54977257 46.0188734,9.00873487 46.0188734,12.0748964 L46.0188734,14.9182236 L46.0188734,14.9182236 Z M59.7672445,14.9839062 C59.7672445,18.3390713 58.8143297,20.7863567 53.0417253,20.7863567 C50.9570126,20.7863567 49.7343227,20.6019588 47.4334999,20.2458131 L47.4334999,1.06649097 L51.661425,0.356632246 L51.661425,7.06550269 C52.575179,6.72395312 53.757741,6.55025911 54.8339401,6.55025911 C59.0623486,6.55025911 59.7667611,8.45797403 59.7667611,11.523649 L59.7667611,14.9839062 L59.7672445,14.9839062 Z M73.3202947,15.0568869 C73.3202947,17.9513006 72.132898,20.758624 67.1647839,20.758624 C62.1942524,20.758624 60.9846162,17.9513006 60.9846162,15.0568869 L60.9846162,12.2622135 C60.9846162,9.3663402 62.1942524,6.55853025 67.1647839,6.55853025 C72.132898,6.55853025 73.3202947,9.3663402 73.3202947,12.2622135 L73.3202947,15.0568869 Z M86.864159,15.0568869 C86.864159,17.9513006 85.6753119,20.758624 80.7081647,20.758624 C75.7376332,20.758624 74.527997,17.9513006 74.527997,15.0568869 L74.527997,12.2622135 C74.527997,9.3663402 75.7376332,6.55853025 80.7081647,6.55853025 C85.6753119,6.55853025 86.864159,9.3663402 86.864159,12.2622135 L86.864159,15.0568869 Z M100.763372,20.6019588 L96.1805816,20.6019588 L92.304621,14.0906227 L92.304621,20.6019588 L88.0752456,20.6019588 L88.0752456,1.06600443 L92.304621,0.356145708 L92.304621,12.9326627 L96.1805816,6.75022616 L100.763372,6.75022616 L96.5320626,13.4970466 L100.763372,20.6019588 L100.763372,20.6019588 Z M80.6936607,10.1049047 C79.2572781,10.1049047 78.7588229,10.8950421 78.7588229,11.8788217 L78.7588229,15.4689845 C78.7588229,16.4551967 79.2572781,17.2477669 80.6936607,17.2477669 C82.1281093,17.2477669 82.6357504,16.4551967 82.6357504,15.4689845 L82.6357504,11.8788217 C82.6357504,10.8950421 82.1281093,10.1049047 80.6936607,10.1049047 Z" id="Shape"></path>
            </g>
        </g>
    </g>
</svg>