<?xml version="1.0" encoding="UTF-8" standalone="no"?>
<svg width="82px" height="28px" viewBox="0 0 82 28" version="1.1" xmlns="http://www.w3.org/2000/svg" xmlns:xlink="http://www.w3.org/1999/xlink">
    <!-- Generator: Sketch 42 (36781) - http://www.bohemiancoding.com/sketch -->
    <title>Google</title>
    <desc>Created with Sketch.</desc>
    <defs></defs>
    <g id="Sep-6" stroke="none" stroke-width="1" fill="none" fill-rule="evenodd">
        <g id="3-copy" transform="translate(-97.000000, -468.000000)" fill-rule="nonzero" fill="#D1C2AD">
            <g id="Google" transform="translate(97.000000, 468.000000)">
                <path d="M10.1424103,0.47555998 L10.8634818,0.47555998 C13.3668241,0.53045143 15.8293511,1.54594326 17.5980168,3.34363824 C16.944971,4.01605851 16.2783201,4.66103304 15.6388794,5.33345331 C14.6457055,4.42774438 13.4484548,3.72787839 12.1423632,3.48086687 C10.2104359,3.06918099 8.12885238,3.43969828 6.50984294,4.55125014 C4.74117717,5.71769346 3.54392649,7.69378566 3.28542919,9.80710648 C2.99972164,11.8929816 3.58474186,14.0886396 4.93164887,15.7079374 C6.22413539,17.2860665 8.19687799,18.2741126 10.2376462,18.342727 C12.1423632,18.4525099 14.1287109,17.8624268 15.5164333,16.5175862 C16.604843,15.5707087 17.1082325,14.1298082 17.2714939,12.7300762 C15.0130438,12.7300762 12.7545936,12.7437991 10.4961435,12.7300762 L10.4961435,9.90316652 L20.0061233,9.90316652 C20.4959077,12.9359191 19.7884414,16.3529119 17.502781,18.5211242 C15.9790074,20.0580848 13.8702136,20.9637937 11.7206044,21.1421909 C9.63902085,21.3480338 7.48941168,20.9500708 5.63911518,19.934579 C3.4214804,18.74069 1.65281463,16.7234292 0.782086864,14.349374 C-0.0342204157,12.1674388 -0.047825537,9.69732358 0.714061257,7.50166558 C1.40792244,5.49812766 2.74122434,3.72787839 4.45546962,2.49282077 C6.1016893,1.27148601 8.10164214,0.599065743 10.1424103,0.47555998 Z" id="Shape"></path>
                <path d="M64.6989469,1.18914883 L67.6104428,1.18914883 L67.6104428,20.7853965 C66.6444792,20.7853965 65.6649105,20.7991193 64.6989469,20.7716736 C64.712552,14.2533139 64.6989469,7.72123138 64.6989469,1.18914883 L64.6989469,1.18914883 Z" id="Shape"></path>
                <path d="M26.4821611,7.98196577 C28.2780371,7.63889421 30.2235694,8.02313436 31.7065276,9.10724049 C33.0534347,10.0678409 33.992188,11.5773557 34.2778956,13.2240992 C34.6452338,15.1315771 34.1826597,17.2174522 32.9581988,18.7269671 C31.638502,20.4148792 29.4752877,21.3205881 27.3664939,21.1833595 C25.4345667,21.0735766 23.55706,20.0992534 22.4142298,18.5074013 C21.1217432,16.7508749 20.8088255,14.3356511 21.5162918,12.2772217 C22.2237581,10.0678409 24.2237109,8.37992878 26.4821611,7.98196577 L26.4821611,7.98196577 Z M26.8903147,10.5893096 C26.1556381,10.7814297 25.4753821,11.2068385 24.9855977,11.8106444 C23.6659009,13.4024965 23.7475317,15.9961175 25.2032796,17.4781866 C26.033192,18.3290041 27.2848632,18.7269671 28.4412985,18.4936784 C29.5161031,18.3015584 30.4548565,17.5742467 30.9718511,16.6136463 C31.8697891,14.9806256 31.6112918,12.7300762 30.2371745,11.45385 C29.3528417,10.6304782 28.0603551,10.2874067 26.8903147,10.5893096 Z" id="Shape"></path>
                <path d="M40.9035897,7.98196577 C42.957963,7.58400276 45.202808,8.16036298 46.7401867,9.61498641 C49.243529,11.8792587 49.5156315,16.1196232 47.3796274,18.7269671 C46.0871409,20.3737106 43.9919522,21.2794195 41.9239738,21.1833595 C39.9512312,21.128468 38.0056988,20.1404219 36.8356584,18.5074013 C35.5159616,16.7097063 35.2302541,14.2395911 35.9785357,12.1399931 C36.7268174,9.99922656 38.6859549,8.36620592 40.9035897,7.98196577 L40.9035897,7.98196577 Z M41.3117433,10.5893096 C40.5770667,10.7814297 39.8968107,11.2068385 39.4070263,11.7969215 C38.1009347,13.3613279 38.1553551,15.9137803 39.5566826,17.4095723 C40.386595,18.3015584 41.6790816,18.74069 42.8763322,18.4936784 C43.9375317,18.2878355 44.8898902,17.5742467 45.4068848,16.6136463 C46.2912177,14.9669028 46.0327204,12.7163533 44.644998,11.4401271 C43.7606651,10.6167554 42.4681786,10.2874067 41.3117433,10.5893096 Z" id="Shape"></path>
                <path d="M53.1345937,8.77789179 C54.6991827,7.78984569 56.7807662,7.51538844 58.4678013,8.36620592 C58.998401,8.59949458 59.4337649,8.99745759 59.8555237,9.39542061 C59.8691288,9.02490332 59.8555237,8.64066317 59.8691288,8.25642302 C60.7806719,8.27014588 61.692215,8.25642302 62.6173633,8.27014588 L62.6173633,20.3737106 C62.6037582,22.1988513 62.141184,24.1337749 60.8350924,25.4648926 C59.4065547,26.9332389 57.2161301,27.3860933 55.2433875,27.0841904 C53.1345937,26.7685645 51.2979024,25.2178811 50.4815951,23.2555117 C51.2979024,22.8575487 52.155025,22.5419229 52.9985425,22.1714056 C53.4747218,23.2966803 54.4406854,24.2572807 55.6515412,24.4768465 C56.862397,24.6964123 58.2637245,24.3945093 59.0528215,23.3790175 C59.896339,22.3360799 59.896339,20.9089022 59.8555237,19.632676 C59.2296881,20.2502048 58.5086167,20.7991193 57.6378889,21.0049623 C55.746777,21.5401539 53.6651935,20.8814565 52.2094455,19.5915074 C50.7400924,18.3015584 49.8693646,16.3117433 49.9509953,14.3356511 C49.9918107,12.0988245 51.2434819,9.94433511 53.1345937,8.77789179 L53.1345937,8.77789179 Z M55.9508538,10.5344182 C55.1209414,10.6716468 54.3454495,11.1382241 53.8148498,11.7831987 C52.5359684,13.3201593 52.5359684,15.7765517 53.8284549,17.2860665 C54.5631315,18.1780526 55.746777,18.6720757 56.8896072,18.5485699 C57.9644118,18.438787 58.9575857,17.7526439 59.4881854,16.8057664 C60.3861234,15.2001914 60.2364671,13.0182563 59.0256113,11.6185243 C58.2773296,10.753984 57.0800789,10.3285753 55.9508538,10.5344182 L55.9508538,10.5344182 Z" id="Shape"></path>
                <path d="M71.106959,9.47775778 C72.7395736,7.94079718 75.256521,7.41932841 77.3517097,8.22897729 C79.3380574,8.98373473 80.6033337,10.8912126 81.2427744,12.853582 C78.2904631,14.0886396 75.3517569,15.3099743 72.3994455,16.545032 C72.8075992,17.3272351 73.4334347,18.040824 74.2769523,18.3290041 C75.4605978,18.7544128 76.8755304,18.6034613 77.8687043,17.8075353 C78.2632528,17.5056323 78.5761706,17.1076693 78.8754833,16.7234292 C79.623765,17.2311751 80.3720466,17.7251981 81.1203283,18.2329441 C80.0591288,19.838519 78.2768579,20.9637937 76.3585358,21.1421909 C74.2361369,21.4029253 71.9776868,20.5795535 70.6035695,18.9053643 C68.3451194,16.2705747 68.5628013,11.851813 71.106959,9.47775778 L71.106959,9.47775778 Z M72.562707,12.0164873 C72.1001329,12.6889076 71.9096612,13.5122794 71.9232663,14.3219282 C73.8960089,13.4985565 75.8687515,12.6751847 77.8414941,11.8380901 C77.5149711,11.0696098 76.7258741,10.6030325 75.923172,10.4795267 C74.6306854,10.2462381 73.2837784,10.9461041 72.562707,12.0164873 L72.562707,12.0164873 Z" id="Shape"></path>
            </g>
        </g>
    </g>
</svg>